<?xml version="1.0" encoding="utf-8"?>
<!-- Generator: Adobe Illustrator 15.1.0, SVG Export Plug-In . SVG Version: 6.00 Build 0)  -->
<!DOCTYPE svg PUBLIC "-//W3C//DTD SVG 1.1//EN" "http://www.w3.org/Graphics/SVG/1.1/DTD/svg11.dtd">
<svg version="1.1" id="Layer_1" xmlns="http://www.w3.org/2000/svg" xmlns:xlink="http://www.w3.org/1999/xlink" x="0px" y="0px"
	 width="50px" height="50px" viewBox="0 0 50 50" enable-background="new 0 0 50 50" xml:space="preserve">
<path d="M12,25c0-0.337,0.025-0.669,0.051-1H4v2h8.051C12.025,25.669,12,25.337,12,25z"/>
<path d="M14.539,17.305l-7.658-4.421l-1,1.732L13.475,19C13.785,18.405,14.144,17.841,14.539,17.305z"/>
<path d="M36.715,19.392l6.973-4.026l-1-1.732l-6.965,4.021C36.099,18.204,36.425,18.788,36.715,19.392z"/>
<path d="M30.834,36.605l4.05,7.014l1.732-1l-4.069-7.048C32.006,35.959,31.434,36.304,30.834,36.605z"/>
<path d="M35.955,31.979l7.165,4.137l1-1.732l-7.217-4.167C36.633,30.832,36.313,31.419,35.955,31.979z"/>
<path d="M37.949,24C37.975,24.331,38,24.663,38,25s-0.025,0.669-0.051,1H46v-2H37.949z"/>
<path d="M13.286,30.608l-6.972,4.025l1,1.732l6.963-4.021C13.901,31.797,13.576,31.214,13.286,30.608z"/>
<path d="M17.655,35.723l-4.021,6.964l1.732,1l4.025-6.972C18.788,36.425,18.204,36.1,17.655,35.723z"/>
<path d="M25,38c-0.337,0-0.669-0.025-1-0.051V46h2v-8.051C25.669,37.975,25.337,38,25,38z"/>
<path d="M30,16.349V9H20v7.349c-2.986,1.73-5,4.952-5,8.651c0,5.522,4.477,10,10,10c5.522,0,10-4.478,10-10
	C35,21.301,32.986,18.079,30,16.349z"/>
</svg>
