<?xml version="1.0" encoding="utf-8"?>
<!-- Generator: Adobe Illustrator 16.0.0, SVG Export Plug-In . SVG Version: 6.00 Build 0)  -->
<!DOCTYPE svg PUBLIC "-//W3C//DTD SVG 1.1//EN" "http://www.w3.org/Graphics/SVG/1.1/DTD/svg11.dtd">
<svg version="1.1" id="Layer_1" xmlns="http://www.w3.org/2000/svg" xmlns:xlink="http://www.w3.org/1999/xlink" x="0px" y="0px"
	 width="589px" height="229px" viewBox="0 0 589 229" enable-background="new 0 0 589 229" xml:space="preserve">
<g>
	<path fill="#C3C1C0" d="M73.917,127.774c0,0-13.574,4.3-24.569,4.3c-6.703,0-10.481-4.643-10.481-13.233
		c0-8.073,3.955-12.37,12.887-13.058l22.163-1.716V127.774z M62.062,56.643c-13.056,0-34.532,3.437-34.532,3.437l0.687,14.089
		c0,0,20.271-2.058,32.985-2.058c8.078,0,12.716,4.295,12.716,13.054v6.187l-24.053,2.062c-18.214,1.546-27.489,8.249-27.489,25.772
		c0,17.008,8.59,26.977,24.055,26.977c14.946,0,29.893-6.359,29.893-6.359c3.592,3.205,7.281,5.07,13.921,5.812v-60.62
		C90.245,64.719,80.447,56.643,62.062,56.643"/>
	<path fill="#C3C1C0" d="M121.474,77.091v52.918c1.543,0.172,9.963,1.375,16.665,1.375c17.007,0,22.334-8.418,22.334-31.098
		c0-21.479-6.699-28.865-18.21-28.865C132.985,71.422,121.474,77.091,121.474,77.091 M105.322,58.537h16.152v5.154
		c0,0,12.196-7.048,23.536-7.048c21.992,0,32.128,12.203,32.128,43.816c0,34.706-11.679,45.703-37.968,45.703
		c-7.56,0-16.153-1.546-17.696-1.892v37.457h-16.152V58.537z"/>
	<path fill="#C3C1C0" d="M244.243,95.476c0-17.869-5.67-24.399-19.417-24.399c-13.399,0-20.098,7.046-20.271,24.399H244.243z
		 M257.134,129.668l0.338,12.887c0,0-19.584,3.607-34.188,3.607c-25.775-0.173-35.052-14.433-35.052-44.16
		c0-31.954,13.746-45.359,36.594-45.359c23.715,0,35.566,12.202,35.566,39.69l-1.028,11.857h-54.636
		c0,15.464,5.498,23.022,20.784,23.022C238.746,131.213,257.134,129.668,257.134,129.668"/>
	<path fill="#C3C1C0" d="M274.046,58.537h16.153v10.135c0,0,1.436-10.135,28.005-10.135v14.601
		c-17.114-2.097-28.005,7.084-28.005,7.084v64.048h-16.153V58.537z"/>
	<path fill="#C3C1C0" d="M355.927,73.138v37.458c0,15.465,0.861,20.274,10.653,20.274c4.809,0,14.604-0.86,14.604-0.86l0.862,14.088
		c0,0-11.513,2.064-17.528,2.064c-18.728,0-24.739-7.045-24.739-31.787V73.138h-11.514V58.537h11.514V32.762h16.147v25.775h25.258
		v14.601H355.927z"/>
	<path fill="#C3C1C0" d="M461.609,58.537v85.733c-9.565,0-11.788-4.98-11.788-4.98s-17.935,6.872-28.59,6.872
		c-24.397,0-29.378-12.027-29.378-42.956V58.537h16.32v44.499c0,20.959,1.549,28.349,15.979,28.349
		c9.624,0,21.134-5.153,21.134-5.153V58.537H461.609z"/>
	<path fill="#C3C1C0" d="M535.24,73.999c0,0-19.756-2.75-30.411-2.75c-10.308,0-16.492,2.577-16.492,10.996
		c0,6.531,3.95,8.42,19.588,10.996c22.68,3.607,30.414,8.762,30.414,25.6c0,20.104-12.887,27.322-33.853,27.322
		c-11.511,0-31.1-3.609-31.1-3.609l0.689-13.918c0,0,20.271,2.749,29.036,2.749c13.062,0,18.898-2.749,18.898-12.026
		c0-7.215-3.608-8.937-18.898-11.34c-21.479-3.608-31.102-7.904-31.102-25.429c0-19.244,15.468-25.946,31.788-25.946
		c12.713,0,31.787,3.61,31.787,3.61L535.24,73.999z"/>
	<path fill="#FA8756" d="M558.102,16.408c-8.982,0-16.263,7.282-16.263,16.264s7.28,16.264,16.263,16.264
		c8.983,0,16.265-7.282,16.265-16.264S567.085,16.408,558.102,16.408 M558.102,24.366c4.58,0,8.308,3.726,8.308,8.306
		s-3.728,8.306-8.308,8.306c-4.579,0-8.305-3.726-8.305-8.306S553.522,24.366,558.102,24.366"/>
</g>
<g>
	<path fill="#FA8756" d="M179.28,192.868c0,9.655-6.689,13.863-13,13.863c-7.066,0-12.514-5.179-12.514-13.432
		c0-8.738,5.718-13.862,12.945-13.862C174.209,179.438,179.28,184.886,179.28,192.868z M158.567,193.139
		c0,5.717,3.29,10.032,7.929,10.032c4.531,0,7.929-4.261,7.929-10.141c0-4.423-2.211-10.033-7.821-10.033
		C160.995,182.997,158.567,188.176,158.567,193.139z"/>
	<path fill="#FA8756" d="M182.571,188.554c0-3.345-0.108-6.042-0.216-8.522h4.261l0.216,4.477h0.108
		c1.942-3.183,5.017-5.07,9.278-5.07c6.311,0,11.058,5.34,11.058,13.27c0,9.385-5.718,14.024-11.867,14.024
		c-3.452,0-6.473-1.511-8.037-4.1h-0.108v14.186h-4.693V188.554z M187.264,195.512c0,0.701,0.108,1.349,0.216,1.941
		c0.863,3.291,3.722,5.556,7.12,5.556c5.016,0,7.929-4.099,7.929-10.086c0-5.232-2.751-9.71-7.768-9.71
		c-3.236,0-6.257,2.319-7.174,5.88c-0.162,0.594-0.324,1.295-0.324,1.941V195.512z"/>
	<path fill="#FA8756" d="M213.263,193.947c0.108,6.419,4.208,9.062,8.954,9.062c3.398,0,5.448-0.593,7.228-1.348l0.809,3.397
		c-1.672,0.756-4.531,1.618-8.685,1.618c-8.037,0-12.837-5.286-12.837-13.161s4.639-14.078,12.244-14.078
		c8.522,0,10.788,7.498,10.788,12.298c0,0.972-0.108,1.727-0.162,2.212H213.263z M227.18,190.549
		c0.054-3.021-1.241-7.713-6.581-7.713c-4.801,0-6.904,4.423-7.282,7.713H227.18z"/>
	<path fill="#FA8756" d="M235.001,187.097c0-2.696-0.054-4.908-0.216-7.065h4.208l0.27,4.314h0.108
		c1.294-2.48,4.315-4.908,8.63-4.908c3.614,0,9.224,2.157,9.224,11.111v15.589h-4.747v-15.049c0-4.208-1.564-7.714-6.041-7.714
		c-3.129,0-5.556,2.212-6.365,4.854c-0.216,0.594-0.324,1.402-0.324,2.212v15.696h-4.747V187.097z"/>
	<path fill="#FA8756" d="M270.441,201.283c1.402,0.917,3.883,1.888,6.257,1.888c3.452,0,5.071-1.726,5.071-3.884
		c0-2.266-1.349-3.506-4.855-4.801c-4.693-1.672-6.904-4.261-6.904-7.39c0-4.207,3.398-7.659,9.008-7.659
		c2.643,0,4.962,0.755,6.418,1.618l-1.187,3.452c-1.024-0.647-2.912-1.511-5.34-1.511c-2.805,0-4.369,1.618-4.369,3.561
		c0,2.157,1.564,3.129,4.963,4.423c4.53,1.727,6.85,3.991,6.85,7.875c0,4.585-3.56,7.821-9.763,7.821
		c-2.859,0-5.502-0.701-7.336-1.779L270.441,201.283z"/>
	<path fill="#FA8756" d="M313.432,192.868c0,9.655-6.688,13.863-13,13.863c-7.065,0-12.514-5.179-12.514-13.432
		c0-8.738,5.718-13.862,12.945-13.862C308.361,179.438,313.432,184.886,313.432,192.868z M292.719,193.139
		c0,5.717,3.29,10.032,7.929,10.032c4.531,0,7.93-4.261,7.93-10.141c0-4.423-2.212-10.033-7.821-10.033
		C295.146,182.997,292.719,188.176,292.719,193.139z"/>
	<path fill="#FA8756" d="M338.568,199.018c0,2.697,0.054,5.07,0.216,7.12h-4.207l-0.27-4.262h-0.108
		c-1.24,2.104-3.991,4.855-8.63,4.855c-4.1,0-9.009-2.266-9.009-11.436v-15.265h4.747v14.455c0,4.963,1.511,8.307,5.825,8.307
		c3.183,0,5.395-2.211,6.258-4.314c0.27-0.701,0.431-1.564,0.431-2.428v-16.02h4.747V199.018z"/>
	<path fill="#FA8756" d="M343.802,188.176c0-3.074-0.054-5.718-0.216-8.145h4.153l0.162,5.124h0.216
		c1.187-3.506,4.045-5.718,7.228-5.718c0.54,0,0.917,0.054,1.349,0.162v4.477c-0.485-0.107-0.971-0.162-1.618-0.162
		c-3.344,0-5.718,2.535-6.365,6.096c-0.107,0.647-0.216,1.402-0.216,2.212v13.916h-4.692V188.176z"/>
	<path fill="#FA8756" d="M377.406,205.167c-1.24,0.647-3.991,1.51-7.498,1.51c-7.875,0-12.999-5.34-12.999-13.323
		c0-8.036,5.502-13.862,14.024-13.862c2.805,0,5.286,0.701,6.58,1.349l-1.078,3.668c-1.133-0.647-2.913-1.24-5.502-1.24
		c-5.987,0-9.224,4.423-9.224,9.871c0,6.041,3.884,9.763,9.062,9.763c2.697,0,4.478-0.701,5.825-1.295L377.406,205.167z"/>
	<path fill="#FA8756" d="M382.964,193.947c0.107,6.419,4.207,9.062,8.954,9.062c3.397,0,5.447-0.593,7.228-1.348l0.809,3.397
		c-1.672,0.756-4.53,1.618-8.684,1.618c-8.037,0-12.838-5.286-12.838-13.161s4.639-14.078,12.244-14.078
		c8.522,0,10.788,7.498,10.788,12.298c0,0.972-0.107,1.727-0.162,2.212H382.964z M396.88,190.549
		c0.054-3.021-1.24-7.713-6.581-7.713c-4.8,0-6.904,4.423-7.281,7.713H396.88z"/>
	<path fill="#FA8756" d="M432.103,205.167c-1.24,0.647-3.991,1.51-7.498,1.51c-7.875,0-12.999-5.34-12.999-13.323
		c0-8.036,5.502-13.862,14.024-13.862c2.805,0,5.286,0.701,6.58,1.349l-1.078,3.668c-1.133-0.647-2.913-1.24-5.502-1.24
		c-5.987,0-9.224,4.423-9.224,9.871c0,6.041,3.884,9.763,9.062,9.763c2.697,0,4.478-0.701,5.825-1.295L432.103,205.167z"/>
	<path fill="#FA8756" d="M440.249,172.695c0.054,1.618-1.133,2.912-3.021,2.912c-1.672,0-2.858-1.294-2.858-2.912
		c0-1.673,1.24-2.967,2.966-2.967C439.116,169.729,440.249,171.022,440.249,172.695z M434.963,206.138v-26.106h4.747v26.106H434.963
		z"/>
	<path fill="#FA8756" d="M444.941,187.097c0-2.696-0.054-4.908-0.216-7.065h4.207l0.271,4.314h0.107
		c1.295-2.48,4.315-4.908,8.631-4.908c3.613,0,9.224,2.157,9.224,11.111v15.589h-4.747v-15.049c0-4.208-1.564-7.714-6.041-7.714
		c-3.129,0-5.556,2.212-6.365,4.854c-0.216,0.594-0.323,1.402-0.323,2.212v15.696h-4.747V187.097z"/>
	<path fill="#FA8756" d="M474.879,193.947c0.107,6.419,4.207,9.062,8.953,9.062c3.398,0,5.448-0.593,7.229-1.348l0.809,3.397
		c-1.672,0.756-4.53,1.618-8.684,1.618c-8.037,0-12.838-5.286-12.838-13.161s4.639-14.078,12.244-14.078
		c8.522,0,10.788,7.498,10.788,12.298c0,0.972-0.107,1.727-0.162,2.212H474.879z M488.795,190.549
		c0.054-3.021-1.24-7.713-6.581-7.713c-4.8,0-6.904,4.423-7.281,7.713H488.795z"/>
	<path fill="#FA8756" d="M496.617,187.097c0-2.696-0.054-4.908-0.216-7.065h4.153l0.216,4.207h0.162
		c1.456-2.481,3.884-4.801,8.198-4.801c3.561,0,6.258,2.157,7.391,5.232h0.107c0.81-1.457,1.834-2.59,2.913-3.398
		c1.564-1.187,3.29-1.834,5.771-1.834c3.452,0,8.576,2.266,8.576,11.327v15.373h-4.639v-14.779c0-5.017-1.834-8.037-5.664-8.037
		c-2.696,0-4.801,1.996-5.609,4.315c-0.216,0.646-0.378,1.51-0.378,2.373v16.128h-4.639v-15.643c0-4.153-1.834-7.174-5.448-7.174
		c-2.966,0-5.124,2.373-5.879,4.746c-0.27,0.702-0.378,1.511-0.378,2.32v15.75h-4.639V187.097z"/>
	<path fill="#FA8756" d="M553.417,206.138l-0.378-3.29h-0.161c-1.457,2.05-4.262,3.884-7.983,3.884
		c-5.286,0-7.983-3.723-7.983-7.498c0-6.311,5.61-9.763,15.696-9.709v-0.54c0-2.157-0.593-6.041-5.933-6.041
		c-2.428,0-4.963,0.756-6.797,1.942l-1.079-3.129c2.158-1.402,5.286-2.319,8.577-2.319c7.982,0,9.925,5.448,9.925,10.68v9.764
		c0,2.266,0.107,4.477,0.432,6.257H553.417z M552.716,192.814c-5.179-0.107-11.058,0.81-11.058,5.88c0,3.074,2.05,4.53,4.477,4.53
		c3.398,0,5.556-2.157,6.312-4.369c0.161-0.485,0.27-1.024,0.27-1.51V192.814z"/>
</g>
</svg>
