<?xml version="1.0" encoding="utf-8"?>
<!-- Generator: Adobe Illustrator 15.1.0, SVG Export Plug-In . SVG Version: 6.00 Build 0)  -->
<!DOCTYPE svg PUBLIC "-//W3C//DTD SVG 1.1//EN" "http://www.w3.org/Graphics/SVG/1.1/DTD/svg11.dtd">
<svg version="1.1" xmlns="http://www.w3.org/2000/svg" xmlns:xlink="http://www.w3.org/1999/xlink" x="0px" y="0px" width="50px"
	 height="50px" viewBox="0 0 50 50" enable-background="new 0 0 50 50" xml:space="preserve">
<g id="Layer_1">
	<g>
		<rect x="11" y="22" width="29" height="7"/>
		<rect x="8" y="22" width="2" height="7"/>
		<rect x="41" y="22" width="2" height="7"/>
	</g>
	<g>
		<path d="M16.798,17.671L9.696,9.207l-1.532,1.285l7.1,8.461C15.742,18.488,16.257,18.063,16.798,17.671z"/>
		<path d="M25,15c0.337,0,0.668,0.027,1,0.05V4h-2v11.05C24.332,15.027,24.663,15,25,15z"/>
		<path d="M30.713,16.227L34.49,5.849l-1.879-0.684l-3.777,10.379C29.48,15.729,30.107,15.956,30.713,16.227z"/>
		<path d="M34.736,18.952l7.1-8.461l-1.531-1.285l-7.104,8.465C33.742,18.063,34.257,18.488,34.736,18.952z"/>
		<path d="M21.167,15.545L17.389,5.166L15.51,5.85l3.777,10.377C19.892,15.956,20.52,15.729,21.167,15.545z"/>
		<path d="M33.201,33.329l7.103,8.464l1.531-1.285l-7.099-8.46C34.258,32.512,33.742,32.938,33.201,33.329z"/>
		<path d="M28.834,35.455l3.777,10.379l1.879-0.684l-3.777-10.377C30.108,35.044,29.48,35.271,28.834,35.455z"/>
		<path d="M25,36c-0.337,0-0.668-0.027-1-0.051V47h2V35.949C25.668,35.973,25.338,36,25,36z"/>
		<path d="M15.263,32.048l-7.099,8.46l1.532,1.285l7.102-8.464C16.257,32.937,15.742,32.512,15.263,32.048z"/>
		<path d="M19.287,34.773L15.51,45.15l1.879,0.684l3.777-10.379C20.52,35.271,19.893,35.044,19.287,34.773z"/>
	</g>
</g>
<g id="Layer_2" display="none">
	<path display="inline" d="M27.477,12.713l-3.263-8.948L22.009,4.57l3.289,9.018C25.996,13.246,26.723,12.957,27.477,12.713z"/>
	<path display="inline" d="M22.489,15.337l-6.243-7.433l-1.797,1.51l6.296,7.495C21.289,16.347,21.868,15.818,22.489,15.337z"/>
	<path display="inline" d="M33.124,11.909L33.118,2.6l-2.347,0.002l0.005,9.407C31.568,11.923,32.352,11.88,33.124,11.909z"/>
	<path display="inline" d="M38.767,13.137l3.112-8.582l-2.207-0.802l-3.137,8.645C37.3,12.589,38.043,12.839,38.767,13.137z"/>
	<path display="inline" d="M43.682,16.275l5.764-6.885l-1.797-1.51l-5.795,6.917C42.5,15.241,43.104,15.74,43.682,16.275z"/>
	<path display="inline" d="M27.477,30.797l-3.263,8.948l-2.205-0.806l3.289-9.018C25.996,30.264,26.723,30.553,27.477,30.797z"/>
	<path display="inline" d="M22.489,28.172l-6.243,7.434l-1.797-1.511l6.296-7.495C21.289,27.162,21.868,27.691,22.489,28.172z"/>
	<path display="inline" d="M33.124,31.602l-0.006,9.309l-2.347-0.002l0.005-9.408C31.568,31.587,32.352,31.63,33.124,31.602z"/>
	<path display="inline" d="M38.767,30.373l3.112,8.582l-2.207,0.801l-3.137-8.645C37.3,30.92,38.043,30.671,38.767,30.373z"/>
	<path display="inline" d="M43.682,27.234l5.764,6.885l-1.797,1.51l-5.795-6.916C42.5,28.269,43.104,27.77,43.682,27.234z"/>
</g>
</svg>
